<svg xmlns="http://www.w3.org/2000/svg" width="512" height="512" viewBox="0 0 512 512">
  <rect width="512" height="512" rx="112" fill="#2563eb"/>
  <rect x="80" y="74" width="352" height="364" rx="42" fill="#ffffff"/>
  <rect x="126" y="144" width="260" height="22" rx="11" fill="#dbeafe"/>
  <rect x="126" y="198" width="260" height="22" rx="11" fill="#dbeafe"/>
  <rect x="126" y="252" width="196" height="22" rx="11" fill="#dbeafe"/>
  <circle cx="152" cy="354" r="20" fill="#22c55e"/>
  <rect x="192" y="338" width="156" height="32" rx="16" fill="#bfdbfe"/>
  <path d="M251 44c3-7 8-7 11 0l7 18h19c7 0 10 6 5 10l-14 11 5 17c2 7-5 11-11 7l-17-12-17 12c-6 4-13 0-11-7l5-17-14-11c-5-4-2-10 5-10h19l8-18z" fill="#fbbf24"/>
</svg>
