<svg xmlns="http://www.w3.org/2000/svg" width="192" height="192" viewBox="0 0 192 192">
  <rect width="192" height="192" rx="42" fill="#2563eb"/>
  <rect x="30" y="28" width="132" height="136" rx="16" fill="#ffffff"/>
  <rect x="48" y="54" width="96" height="8" rx="4" fill="#dbeafe"/>
  <rect x="48" y="74" width="96" height="8" rx="4" fill="#dbeafe"/>
  <rect x="48" y="94" width="72" height="8" rx="4" fill="#dbeafe"/>
  <circle cx="58" cy="132" r="7" fill="#22c55e"/>
  <rect x="72" y="126" width="58" height="12" rx="6" fill="#bfdbfe"/>
  <path d="M94 10c1-2 3-2 4 0l2 6h7c2 0 3 2 2 3l-5 4 2 6c1 2-1 4-3 3l-6-4-6 4c-2 1-4-1-3-3l2-6-5-4c-1-1 0-3 2-3h7l2-6z" fill="#fbbf24" transform="translate(38 36)"/>
</svg>
